# xmcd
#
# Track frame offsets:
#       150
#       79795
#       110312
#       135907
#       148695
#       166732
#       191045
#       221690
#       244035
#       285660
#       316732
#
# Disc length: 4785 seconds
#
# Revision: 2
# Processed by: cddbd v1.4PL0 Copyright (c) Steve Scherf et al.
# Submitted via: WhereIsIt 3.24
#
DISCID=9312af0b
DTITLE=Van Morrison - I like candy [CD2]
DYEAR=1900
DGENRE=
TTITLE0=Medley: See me through/Soldier of fortune/Thank you falettinme be mice
TTITLE0=elf agin/Burning ground
TTITLE1=Have I told you lately
TTITLE2=Moondance/My funny valentine
TTITLE3=Your mind is on vacation
TTITLE4=Have I told you lately
TTITLE5=I았e been working
TTITLE6=Vanlose stairway/Trans euro train
TTITLE7=If fells you up
TTITLE8=I앏l take care of you/It압 a man압, man압, man압 world
TTITLE9=Gloria
TTITLE10=Stormy Monday
EXTD=
EXTT0=
EXTT1=
EXTT2=
EXTT3=
EXTT4=
EXTT5=
EXTT6=
EXTT7=
EXTT8=
EXTT9=
EXTT10=
PLAYORDER=
